# xmcd CD database file
#
# Track frame offsets:
#	150
#	15972
#	32305
#	51255
#	75577
#	104697
#	126490
#	149760
#	164930
#	188857
#	208365
#
# Disc length: 2841 seconds
#
# Revision: 0
# Processed by: cddbd v1.5PL3 Copyright (c) Steve Scherf et al.
# Submitted via: CDex 1.50beta8
#
DISCID=a40b170b
DTITLE=皆川純子 - Future of Blue
DYEAR=2003
DGENRE=JPop
TTITLE0=TIME STOP
TTITLE1=Catch My Rainbow
TTITLE2=WOMAN
TTITLE3=Say Hello (to soul)
TTITLE4=Innate Mond
TTITLE5=HEART
TTITLE6=ING
TTITLE7=MOMO
TTITLE8=Place of your Life
TTITLE9=Endless Blue
TTITLE10=Say Hello (good night)
EXTD=YEAR: 2003
EXTT0=
EXTT1=
EXTT2=
EXTT3=
EXTT4=
EXTT5=
EXTT6=
EXTT7=
EXTT8=
EXTT9=
EXTT10=
PLAYORDER=
